# xmcd
#
# Track frame offsets: 
#        150
#        15065
#        31555
#        43935
#        64044
#        80763
#        95598
#        113578
#        130040
#        139914
#        160121
#        172191
#        190703
#        206420
#
# Disc length: 2882 seconds
#
# Revision: 4
# Processed by: cddbd v1.5.2PL0 Copyright (c) Steve Scherf et al.
# Submitted via: ExactAudioCopy v0.99pb4
#
DISCID=ae0b400e
DTITLE=Champion Jack Dupree - From New Orleans To Chicago
DYEAR=1966
DGENRE=Blues
TTITLE0=Third Degree
TTITLE1=T.V. Mama
TTITLE2=He Knows The Rules
TTITLE3=Ain't It A Shame
TTITLE4=Ooh La-La
TTITLE5=(Going Down To) Big Leg Emma's
TTITLE6=Won't Be A Fool No More
TTITLE7=Take It Slow And Easy
TTITLE8=She's All In My Life
TTITLE9=Poor Poor Me
TTITLE10=Pigfoot And A Bottle Of Beer
TTITLE11=Down The Valley
TTITLE12=Too Early In The Morning
TTITLE13=Shim-Sham-Shimmy
EXTD=YEAR: 1966
EXTT0=
EXTT1=
EXTT2=
EXTT3=
EXTT4=
EXTT5=
EXTT6=
EXTT7=
EXTT8=
EXTT9=
EXTT10=
EXTT11=
EXTT12=
EXTT13=
PLAYORDER=
